<?xml version="1.0" encoding="utf-8" ?><svg xmlns="http://www.w3.org/2000/svg" xmlns:xlink="http://www.w3.org/1999/xlink" width="429" height="395" viewBox="0 0 429 395"><defs><linearGradient id="gradient_0" gradientUnits="userSpaceOnUse" x1="60.800766" y1="263.35208" x2="296.0202" y2="33.449661"><stop offset="0" stop-color="#1F9393"/><stop offset="1" stop-color="#2BD7C4"/></linearGradient></defs><path fill="url(#gradient_0)" d="M244.837 139.559C241.106 134.515 234.233 131.142 228.503 128.81C217.687 124.41 206.863 122.517 195.344 121.338C192.282 121.025 189.211 120.578 186.132 120.488C173.243 120.115 160.248 121.016 147.377 120.421C122.395 119.268 97.9101 111.123 79.3062 93.9879C66.3323 82.0385 59.234 65.8556 58.5723 48.3379C58.395 43.6444 57.9628 33.3077 59.2664 29.0202C59.6162 27.87 60.2952 26.7686 61.121 25.8974C62.539 24.3734 64.5185 23.4956 66.5999 23.4675C81.7569 23.2333 79.5409 42.8468 79.4849 52.9507C79.4244 63.8621 88.709 72.2167 99.4774 71.4925C121.606 70.0043 104.818 36.7676 115.086 25.8802C116.818 24.0287 119.227 22.9582 121.762 22.9133C126.442 22.872 130.192 26.1401 131.823 30.3396C132.998 33.3631 133.274 36.8325 133.685 40.0325C134.858 49.1671 135.686 64.6147 142.468 71.233C144.577 73.2909 147.749 74.671 150.714 74.605C153.376 74.5457 155.848 73.2942 157.672 71.3802C162.547 66.2654 160.636 59.3582 160.53 53.0891C160.467 49.3982 160.912 45.0842 163.657 42.3239C165.518 40.4528 168.629 39.3746 171.246 39.4746C172.433 39.5201 173.544 40.0833 174.558 40.6641C184.838 46.5519 174.517 72.3699 185.963 84.7101C190.577 89.6846 198.152 92.1074 204.763 92.3692C205.138 86.7885 203.323 75.2821 205.168 70.4275C205.948 68.3187 207.547 66.6142 209.601 65.7003C213.498 63.9648 218.745 64.1391 222.704 65.5506C228.618 67.4792 228.522 75.5094 229.145 80.4887C230.915 94.6417 231.592 115.666 251.181 114.53C254.338 114.466 257.699 114.722 260.789 113.923C270.375 111.442 278.614 107.199 279.177 96.1547C279.313 93.488 278.887 90.0001 279.823 87.4465C280.682 85.1725 282.423 83.3423 284.652 82.3718C292.655 78.8207 300.399 85.6249 298.996 93.8038C298.392 97.3294 299.363 103.103 304.388 99.8966C311.678 95.2449 313.094 87.5011 313.191 79.389C313.219 75.5317 312.504 68.2332 316.922 66.259C321.724 64.1134 330.569 65.93 332.902 71.1525C335.874 77.8063 334.36 87.5325 332.231 94.1148C325.41 115.205 304.597 126.021 283.857 128.865C277.401 129.805 271.542 129.146 265.584 132.112C268.371 135.518 270.711 135.963 274.755 137.394C281.906 139.924 287.851 144.28 292.652 150.104C296.405 154.657 299.744 160.05 305.285 162.561C309.304 164.432 313.15 165.153 317.525 165.654C327.605 166.799 336.918 169.314 344.439 176.621C351.022 183.016 355.546 193.173 356.53 202.289C356.808 204.858 356.633 209.419 356.664 212.243C356.901 228.526 341.518 246.291 324.242 247.272C324.086 247.267 323.93 247.262 323.774 247.257C319.57 247.456 315.437 248.013 311.275 248.224C303.865 248.599 296.333 247.593 289.145 250.094C288.555 250.295 287.08 250.851 286.527 250.964C284.622 252.363 282.293 253.855 280.532 255.333C274.855 260.067 271.112 266.718 270.009 274.027C268.794 281.985 270.748 293.362 273.343 300.892C277.297 312.364 283.31 321.774 283.554 334.425C283.621 337.894 284.567 342.444 279.259 343.256C271.776 343.826 264.107 343.343 256.598 343.501C240.163 343.678 223.444 343.234 207.037 343.513C201.65 343.322 195.616 343.454 190.191 343.459L160.895 343.468C157.189 343.468 153.468 343.497 149.763 343.466C144.379 343.421 137.235 344.026 133.925 338.808C112.136 304.454 117.668 260.407 124.973 222.46C125.471 219.871 126.872 216.162 129.217 214.601C141.665 209.075 184.987 185.729 186.978 172.162C184.45 171.567 180.865 171.274 178.216 170.971C170.578 170.128 163.969 168.507 157.109 164.877C145.897 158.944 137.562 148.871 133.419 136.894C133.005 135.7 133.004 134.526 133.615 133.411C134.513 132.819 136.223 132.58 137.31 132.573C152.553 132.471 167.811 132.47 183.055 132.56C185.66 132.575 188.412 133.119 191.021 133.251C195.008 133.453 198.99 133.543 202.96 133.99C211.798 134.784 220.36 136.601 228.874 139.08C232.769 140.214 237.001 142.881 241.118 142.755C242.562 142.711 244.049 140.617 244.837 139.559ZM262.392 182.201C267.111 182.345 271.171 181.404 272.813 176.51C272.301 172.673 270.849 169.998 267.684 167.594C265.378 165.831 262.522 164.941 259.622 165.081C249.248 166.441 244.019 174.003 255.34 179.991C257.097 180.92 260.371 181.862 262.392 182.201Z"/><path fill="#ECAB2F" d="M240.169 274.47C254.422 261.167 267.074 253.216 286.527 250.964C284.622 252.363 282.293 253.855 280.532 255.333C274.855 260.067 271.112 266.718 270.009 274.027C268.794 281.985 270.748 293.362 273.343 300.892C277.297 312.364 283.31 321.774 283.554 334.425C283.621 337.894 284.567 342.444 279.259 343.256C271.776 343.826 264.107 343.343 256.598 343.501C240.163 343.678 223.444 343.234 207.037 343.513C208.524 315.694 220.703 293.646 240.169 274.47Z"/><path fill="#02776D" d="M240.169 274.47C238.418 271.986 236.646 268.469 234.809 265.77C224.819 251.094 215.368 235.6 209.455 218.779C208.696 216.618 207.37 212.97 207.002 210.813C210.527 217.407 218.903 227.625 225.129 232.014C245.311 246.241 276.012 240.184 296.866 230.547C297.779 230.125 299.788 228.685 300.449 228.588C299.699 230.924 284.629 240.847 281.598 242.442C275.516 245.643 267.718 248.326 262.213 252.516C268.746 250.948 276.294 248.652 282.758 246.828C286.55 245.758 304.792 241.752 306.071 239.437C306.951 239.416 308.349 239.392 309.156 239.666C312.461 240.789 321.175 245.292 323.774 247.257C319.57 247.456 315.437 248.013 311.275 248.224C303.865 248.599 296.333 247.593 289.145 250.094C288.555 250.295 287.08 250.851 286.527 250.964C267.074 253.216 254.422 261.167 240.169 274.47Z"/><path fill="#ECAB2F" d="M306.071 239.437C305.909 237.229 310.353 232.058 311.662 229.908C314.911 224.572 317.194 218.583 320.836 213.546C321.431 212.723 322.613 212.775 323.526 212.617C334.683 212.684 345.503 212.824 356.664 212.243C356.901 228.526 341.518 246.291 324.242 247.272C324.086 247.267 323.93 247.262 323.774 247.257C321.175 245.292 312.461 240.789 309.156 239.666C308.349 239.392 306.951 239.416 306.071 239.437Z"/></svg>